<?xml version="1.0" encoding="UTF-8" standalone="no"?>
<!-- Created with Inkscape (http://www.inkscape.org/) -->

<svg
   xmlns:dc="http://purl.org/dc/elements/1.1/"
   xmlns:cc="http://creativecommons.org/ns#"
   xmlns:rdf="http://www.w3.org/1999/02/22-rdf-syntax-ns#"
   xmlns:svg="http://www.w3.org/2000/svg"
   xmlns="http://www.w3.org/2000/svg"
   xmlns:sodipodi="http://sodipodi.sourceforge.net/DTD/sodipodi-0.dtd"
   xmlns:inkscape="http://www.inkscape.org/namespaces/inkscape"
   width="160"
   height="212"
   viewBox="0 0 42.333333 56.091665"
   version="1.1"
   id="svg8"
   sodipodi:docname="BetheaBroken.svg"
   inkscape:version="0.92.4 (5da689c313, 2019-01-14)">
  <defs
     id="defs2" />
  <sodipodi:namedview
     id="base"
     pagecolor="#ffffff"
     bordercolor="#666666"
     borderopacity="1.0"
     inkscape:pageopacity="0.0"
     inkscape:pageshadow="2"
     inkscape:zoom="1"
     inkscape:cx="132.35714"
     inkscape:cy="65.428571"
     inkscape:document-units="px"
     inkscape:current-layer="svg8"
     showgrid="false"
     units="px"
     inkscape:window-width="1920"
     inkscape:window-height="1017"
     inkscape:window-x="-8"
     inkscape:window-y="-8"
     inkscape:window-maximized="1" />
  <metadata
     id="metadata5">
    <rdf:RDF>
      <cc:Work
         rdf:about="">
        <dc:format>image/svg+xml</dc:format>
        <dc:type
           rdf:resource="http://purl.org/dc/dcmitype/StillImage" />
        <dc:title></dc:title>
      </cc:Work>
    </rdf:RDF>
  </metadata>
  <text
     xml:space="preserve"
     style="font-style:normal;font-variant:normal;font-weight:normal;font-stretch:normal;font-size:81.36791229px;line-height:0.5;font-family:'Times New Roman';-inkscape-font-specification:'Times New Roman, Normal';font-variant-ligatures:normal;font-variant-caps:normal;font-variant-numeric:normal;font-feature-settings:normal;text-align:start;letter-spacing:0px;word-spacing:0px;writing-mode:lr-tb;text-anchor:start;fill:#550000;fill-opacity:1;stroke:none;stroke-width:0.4237912"
     x="2.7182899"
     y="54.857224"
     id="text44"
     inkscape:label="text44"
     transform="scale(1.1105451,0.90045871)"><tspan
       sodipodi:role="line"
       id="tspan42"
       x="2.7182899"
       y="54.857224"
       style="font-style:normal;font-variant:normal;font-weight:normal;font-stretch:normal;font-size:81.36791229px;font-family:'Times New Roman';-inkscape-font-specification:'Times New Roman, Normal';font-variant-ligatures:normal;font-variant-caps:normal;font-variant-numeric:normal;font-feature-settings:normal;text-align:start;writing-mode:lr-tb;text-anchor:start;fill:#550000;stroke-width:0.4237912">τ </tspan></text>
  <flowRoot
     xml:space="preserve"
     id="flowRoot46"
     style="font-style:normal;font-weight:normal;font-size:40px;line-height:0.5;font-family:sans-serif;letter-spacing:0px;word-spacing:0px;fill:#000000;fill-opacity:1;stroke:none"
     transform="matrix(0.26458333,0,0,0.26458333,0,-71.908342)"><flowRegion
       id="flowRegion48"><rect
         id="rect50"
         width="88.571426"
         height="105.71429"
         x="117.14286"
         y="220.92239" /></flowRegion><flowPara
       id="flowPara52"></flowPara></flowRoot>  <text
     xml:space="preserve"
     style="font-style:normal;font-weight:normal;font-size:15.08484936px;line-height:0.5;font-family:sans-serif;letter-spacing:0px;word-spacing:0px;fill:#000000;fill-opacity:1;stroke:none;stroke-width:0.37712124"
     x="5.5813351"
     y="39.848484"
     id="text3759"
     transform="scale(1.0179718,0.98234549)"><tspan
       sodipodi:role="line"
       id="tspan3757"
       x="5.5813351"
       y="39.848484"
       style="font-style:normal;font-variant:normal;font-weight:normal;font-stretch:normal;font-size:72.40727997px;font-family:'Times New Roman';-inkscape-font-specification:'Times New Roman, Normal';font-variant-ligatures:normal;font-variant-caps:normal;font-variant-numeric:normal;font-feature-settings:normal;text-align:start;writing-mode:lr-tb;text-anchor:start;fill:#550000;stroke-width:0.37712124">ν</tspan></text>
  <path
     style="fill:#2b0000;stroke-width:0.26458332"
     id="path3841"
     d="m 2.8301489,43.252924 c 0.6826166,-1.051751 0.286815,-0.581665 1.4107202,-1.569228 0.3948454,-0.346948 0.7614015,-0.730901 1.1921705,-1.032087 0.5365326,-0.375134 1.1692453,-0.601207 1.6973023,-0.988179 0.4501224,-0.329861 0.804958,-0.773337 1.2181975,-1.148373 0.3773686,-0.34248 0.7687738,-0.669169 1.1531607,-1.003753 0.6128119,-0.10329 1.2460169,-0.122126 1.8384349,-0.309874 0.271294,-0.08598 0.441795,-0.36693 0.696673,-0.493538 0.803442,-0.399103 1.63369,-0.74327 2.466179,-1.077582 0.345289,-0.138663 0.701551,-0.426905 1.063301,-0.339791 0.241669,0.0582 0.611629,0.95513 0.729492,1.214866 -0.103242,0.03647 -0.252236,0.202605 -0.309725,0.109416 -0.133387,-0.21622 1.478202,-3.991213 -1.730279,-0.41991 -0.320591,0.356844 0.965809,0.320934 1.426765,0.188135 0.283289,-0.08162 0.323816,-0.492747 0.485724,-0.739122 2.267597,0.117451 1.829379,0.338283 4.254983,-0.849328 0.428093,-0.209603 0.74211,-0.608531 1.163531,-0.831244 0.32834,-0.173522 1.412637,-0.416267 1.81605,-0.409554 0.232465,0.0039 0.454704,0.09727 0.682057,0.145912 1.814668,0.422963 -0.167698,0.131623 2.119411,-0.269623 0.450968,-0.07912 0.915669,0.0086 1.373504,0.01288 0.620548,-0.243306 1.210371,-0.588071 1.861645,-0.729914 0.591386,-0.128802 1.209585,-0.04714 1.814378,-0.07071 0.718103,-0.183933 1.436208,-0.367866 2.154311,-0.551799 2.329355,0.388135 1.439934,0.535006 3.796165,-0.366692 0.540073,-0.206679 1.017553,-0.612306 1.590059,-0.693745 0.291658,-0.04149 1.103569,0.321929 0.810543,0.352261 -0.42545,0.04404 -0.833125,-0.194951 -1.24586,-0.307197 -0.07708,-0.02096 0.158256,0.02196 0.237385,0.03293 -0.476449,1.713108 -0.121762,-0.45025 0.9432,1.361141 0.171963,0.292489 -0.504336,0.967446 -0.167024,1.004091 1.421781,0.154458 2.538711,-1.18672 1.525601,-0.728734 -0.77796,0.351684 -1.545768,0.725403 -2.318652,1.088104 -0.130041,-0.06093 -0.249518,-0.153561 -0.390121,-0.182793 -0.150206,-0.03123 -0.307083,0.01535 -0.460216,0.006 -0.231277,-0.01413 -0.466241,-0.132984 -0.69092,-0.07634 -0.451194,0.113747 -0.835361,0.72816 -1.273542,0.571598 -0.38303,-0.136858 -0.10423,-0.858134 -0.37582,-1.160923 -0.2647,-0.295108 -0.727136,-0.31605 -1.090705,-0.474075 -0.379547,-1.065644 -0.375579,-1.729843 -1.586936,-2.241296 -0.670701,-0.283178 -1.582539,0.04362 -2.143165,-0.420843 -0.468209,-0.387901 -0.149029,-1.252289 -0.486688,-1.757932 -0.327625,-0.490619 -0.976662,-0.670486 -1.405503,-1.075632 -0.380781,-0.359738 -0.672428,-0.803406 -1.008642,-1.205109 -1.026166,0.151963 -1.424619,-1.09591 -2.275495,-1.273382 -0.475959,-0.09927 -1.005745,0.340645 -1.45128,0.14599 -0.25748,-0.112493 0.02987,-0.598272 -0.123214,-0.833889 -0.125938,-0.193835 -0.423297,-0.189155 -0.620173,-0.310285 -0.148835,-0.09157 -0.274457,-0.216384 -0.411686,-0.324576 -0.922098,0.432134 -1.270158,0.755603 -1.733225,-0.336391 -0.131555,-0.310228 -0.09417,-0.691763 -0.283954,-0.970208 -1.091972,-1.602135 -0.674278,0.438753 -0.870237,-1.421458 0.294845,-0.285996 0.589689,-0.571992 0.884534,-0.857988 0,0 3.105891,-0.316526 3.105891,-0.316526 v 0 c 0.03657,0.104138 0.07314,0.208275 0.109711,0.312411 0.130326,0.332671 0.119774,0.126907 -0.133609,0.477772 -0.02498,0.03459 -0.102111,0.115307 -0.05949,0.113338 0.131252,-0.0061 0.24288,-0.108725 0.372878,-0.127816 0.655008,-0.09619 0.515117,-0.05379 0.976177,0.357277 0.176866,0.0642 1.433157,0.497458 1.535707,0.633337 0.196533,0.260398 -0.01976,0.718294 0.201898,0.957666 0.250939,0.270991 0.713918,0.209029 1.039657,0.383099 0.169188,0.09041 1.94478,1.418422 2.02393,1.477187 0.7522,0.102986 1.682409,-0.187743 2.256605,0.308959 0.500853,0.433256 0.08608,1.350732 0.359365,1.953956 0.929195,2.050992 1.329214,1.01024 3.096649,1.990249 0.69388,0.384741 0.956437,1.338191 1.778087,1.582354 0.320328,1.81719 -0.227822,0.29206 1.289108,0.157707 0.205536,-0.0182 -0.03793,0.437354 0.06624,0.615464 0.316809,0.541649 0.847958,-1.218769 0.871048,-0.175054 -0.641062,0.165896 -1.274501,0.364667 -1.923182,0.497684 -0.07117,0.0146 0.09899,-0.117705 0.168772,-0.137927 0.829485,-0.24038 1.667066,-0.454859 2.510901,-0.638623 0.238258,-0.05188 0.529945,-0.208409 0.728464,-0.06682 1.621764,1.156687 1.28691,1.180952 0.858078,2.487528 -0.533709,1.580041 0.12967,0.155024 -3.088973,1.180925 -0.462227,0.147328 -0.817507,0.533887 -1.267301,0.715669 -0.525928,0.212548 -1.077225,0.378373 -1.63875,0.458779 -3.987083,0.570934 0.704107,-0.898474 -4.038745,0.879168 -1.960108,-0.168941 -1.879079,-0.268523 -3.845515,-0.0093 -2.368236,0.312155 -1.126377,0.269523 -3.345249,0.809892 -3.005838,0.73202 0.703198,-0.397605 -2.001146,0.463619 -0.270242,0.09381 -0.527127,0.318865 -0.810726,0.281418 -0.23411,-0.03091 -0.327678,-0.564909 -0.539063,-0.45965 -0.527084,0.262464 -0.620427,1.129496 -1.179175,1.315257 -0.305491,0.101561 -0.671291,-0.381309 -0.662114,-0.703109 0.0047,-0.165817 2.716148,-0.184589 -0.440136,0.232252 -0.33941,0.07454 -0.678819,0.149084 -1.018228,0.223628 -0.0705,0.256712 0.02567,0.649243 -0.211514,0.770139 -0.93867,0.478462 -2.03865,0.540393 -3.034479,0.884417 -0.40381,0.139504 -0.759146,0.729829 -1.151968,0.561856 -0.346935,-0.148352 -0.104021,-0.74744 -0.156031,-1.121161 -0.148112,-0.06237 -0.296224,-0.124749 -0.444336,-0.187122 -0.53172,0.536959 -0.07276,-0.05012 -0.08605,0.288158 -0.0065,0.166553 -0.262362,0.573111 -0.120712,0.485257 0.582974,-0.361567 0.971966,-0.980493 1.539805,-1.365393 0.533217,-0.361432 -2.667285,3.576788 -1.678841,0.957111 -0.368305,0.310182 -0.792849,0.563833 -1.104915,0.930543 -0.344815,0.405193 -0.399071,1.060603 -0.841288,1.35645 -0.636099,0.42555 -1.4949955,0.364365 -2.1946242,0.674584 -3.642324,1.615022 0.079137,0.08803 -1.8745626,1.979771 -0.2165178,0.209653 -0.5824289,0.155281 -0.8736433,0.232921 0,0 -3.077029,-1.059506 -3.077029,-1.059506 z"
     inkscape:connector-curvature="0" />
</svg>
